<svg xmlns="http://www.w3.org/2000/svg" width="22.15" height="22.15" viewBox="0 0 22.15 22.15">
  <g id="check-circle-line" transform="translate(-6 -6)">
    <path id="Caminho_61" data-name="Caminho 61" d="M17.075,6A11.075,11.075,0,1,0,28.15,17.075,11.075,11.075,0,0,0,17.075,6Zm0,20.3A9.229,9.229,0,1,1,26.3,17.075,9.229,9.229,0,0,1,17.075,26.3Z" transform="translate(0 0)" fill="#fff"/>
    <path id="Caminho_62" data-name="Caminho 62" d="M15.936,22.981l-4.615-4.615a.923.923,0,0,1,1.3-1.3l3.313,3.313,6.257-6.257a.923.923,0,0,1,1.3,1.3Z" transform="translate(-0.393 -0.609)" fill="#fff"/>
  </g>
</svg>
