<svg xmlns="http://www.w3.org/2000/svg" width="20.667" height="20.666" viewBox="0 0 20.667 20.666">
  <g id="qr-code" transform="translate(-1.125 -1.125)">
    <path id="Caminho_45" data-name="Caminho 45" d="M2.5,2.5H8.014V1.125H1.125V8.014H2.5Z" transform="translate(0 0)" fill="#fff"/>
    <path id="Caminho_46" data-name="Caminho 46" d="M9.758,9.758V5.625H5.625V9.758ZM7,7H8.38V8.38H7Z" transform="translate(-1.745 -1.745)" fill="#fff"/>
    <path id="Caminho_47" data-name="Caminho 47" d="M23.063,2.5h5.856V8.014H30.3V1.125H23.063Z" transform="translate(-8.505 0)" fill="#fff"/>
    <path id="Caminho_48" data-name="Caminho 48" d="M27.758,9.758V5.625H23.625V9.758ZM25,7H26.38V8.38H25Z" transform="translate(-8.723 -1.745)" fill="#fff"/>
    <path id="Caminho_49" data-name="Caminho 49" d="M8.014,29.136H2.5V23.625H1.125v6.889H8.014Z" transform="translate(0 -8.723)" fill="#fff"/>
    <path id="Caminho_50" data-name="Caminho 50" d="M9.758,23.625H5.625v4.133H9.758ZM8.38,26.38H7V25H8.38Z" transform="translate(-1.745 -8.723)" fill="#fff"/>
    <path id="Caminho_51" data-name="Caminho 51" d="M28.918,29.136H23.063v1.378H30.3V23.625H28.919v5.511Z" transform="translate(-8.505 -8.723)" fill="#fff"/>
    <path id="Caminho_52" data-name="Caminho 52" d="M19.125,20.5h5.511v2.755h1.378V19.125H19.125Z" transform="translate(-6.978 -6.978)" fill="#fff"/>
    <path id="Caminho_53" data-name="Caminho 53" d="M20.78,26.014V24.636H12.514V19.125H5.625V20.5h5.511v5.511Z" transform="translate(-1.745 -6.978)" fill="#fff"/>
    <path id="Caminho_54" data-name="Caminho 54" d="M14.625,5.625H16V9.758H14.625Z" transform="translate(-5.234 -1.745)" fill="#fff"/>
    <path id="Caminho_55" data-name="Caminho 55" d="M5.625,12.514h9.644V5.625H13.891v5.511H5.625Z" transform="translate(-1.745 -1.745)" fill="#fff"/>
    <path id="Caminho_56" data-name="Caminho 56" d="M23.625,14.625h4.133V16H23.625Z" transform="translate(-8.723 -5.234)" fill="#fff"/>
    <path id="Caminho_57" data-name="Caminho 57" d="M23.625,23.625H25V25H23.625Z" transform="translate(-8.723 -8.723)" fill="#fff"/>
    <path id="Caminho_58" data-name="Caminho 58" d="M19.125,23.625H20.5V25H19.125Z" transform="translate(-6.978 -8.723)" fill="#fff"/>
  </g>
</svg>
